<?xml version="1.0" encoding="utf-8"?>
<svg viewBox="0 83.34 166.175 116.66" xmlns="http://www.w3.org/2000/svg">
  <g id="g14677" transform="matrix(1.1000000238418577, 0, 0, 1.1000000238418577, -73.74662890652758, 198.77073965625073)" style="stroke-width:0.909091">
    <path style="color:#000000;fill:#ffcc00;stroke-width:3.60795;stroke-linecap:square;-inkscape-stroke:none;paint-order:fill markers stroke" d="m 194.51409,-60.657562 a 20.204304,20.204304 0 0 1 -20.20431,20.204303 20.204304,20.204304 0 0 1 -20.2043,-20.204303 20.204304,20.204304 0 0 1 20.2043,-20.204304 20.204304,20.204304 0 0 1 20.20431,20.204304 z" id="circle14650"/>
    <path style="color:#000000;fill:#ffcc00;stroke-width:4.81061;stroke-linecap:round;-inkscape-stroke:none;paint-order:fill markers stroke" d="m 174.30978,-100.34505 c -1.46579,0 -2.64583,1.416044 -2.64583,3.174994 v 6.879167 c 0,1.75895 1.18004,3.175 2.64583,3.175 1.46579,0 2.64583,-1.41605 2.64583,-3.175 v -6.879167 c 0,-1.75895 -1.18004,-3.174994 -2.64583,-3.174994 z" id="path14652"/>
    <path style="color:#000000;fill:#ffcc00;stroke-width:4.81061;stroke-linecap:round;-inkscape-stroke:none;paint-order:fill markers stroke" d="m 202.37308,-88.720855 c -1.03647,-1.03647 -2.87219,-0.869587 -4.11595,0.374179 l -4.86431,4.864305 c -1.24376,1.243766 -1.41065,3.079479 -0.37418,4.115949 1.03647,1.03647 2.87219,0.869585 4.11595,-0.37418 l 4.86431,-4.864306 c 1.24376,-1.243765 1.41065,-3.079477 0.37418,-4.115947 z" id="path14654"/>
    <path style="color:#000000;fill:#ffcc00;stroke-width:4.81061;stroke-linecap:round;-inkscape-stroke:none;paint-order:fill markers stroke" d="m 213.99727,-60.657559 c 0,-1.46579 -1.41605,-2.645831 -3.175,-2.64583 l -6.87916,-10e-7 c -1.75895,10e-7 -3.175,1.180041 -3.175,2.645831 0,1.46579 1.41605,2.645829 3.175,2.64583 h 6.87916 c 1.75895,0 3.175,-1.18004 3.175,-2.64583 z" id="path14656"/>
    <path style="color:#000000;fill:#ffcc00;stroke-width:4.81061;stroke-linecap:round;-inkscape-stroke:none;paint-order:fill markers stroke" d="m 202.37307,-32.594265 c 1.03647,-1.03647 0.86959,-2.872183 -0.37418,-4.115948 l -4.8643,-4.864306 c -1.24377,-1.243765 -3.07948,-1.410649 -4.11595,-0.374179 -1.03647,1.03647 -0.86959,2.872182 0.37418,4.115949 l 4.8643,4.864305 c 1.24377,1.243765 3.07948,1.410649 4.11595,0.374179 z" id="path14658"/>
    <path style="color:#000000;fill:#ffcc00;stroke-width:4.81061;stroke-linecap:round;-inkscape-stroke:none;paint-order:fill markers stroke" d="m 174.30977,-20.97007 c 1.46579,0 2.64583,-1.41605 2.64583,-3.175 v -6.879166 c 0,-1.75895 -1.18004,-3.175 -2.64583,-3.175 -1.46579,0 -2.64583,1.41605 -2.64583,3.175 v 6.879167 c 0,1.758949 1.18004,3.174999 2.64583,3.174999 z" id="path14660"/>
    <path style="color:#000000;fill:#ffcc00;stroke-width:4.81061;stroke-linecap:round;-inkscape-stroke:none;paint-order:fill markers stroke" d="m 146.24648,-32.594272 c 1.03647,1.03647 2.87218,0.869586 4.11595,-0.37418 l 4.8643,-4.864305 c 1.24377,-1.243765 1.41065,-3.079478 0.37418,-4.115948 -1.03647,-1.03647 -2.87218,-0.869586 -4.11595,0.37418 l -4.8643,4.864305 c -1.24377,1.243765 -1.41065,3.079478 -0.37418,4.115948 z" id="path14662"/>
    <path style="color:#000000;fill:#ffcc00;stroke-width:4.81061;stroke-linecap:round;-inkscape-stroke:none;paint-order:fill markers stroke" d="m 134.62229,-60.657567 c 0,1.46579 1.41604,2.645829 3.175,2.645831 l 6.87916,-3e-6 c 1.75895,3e-6 3.175,-1.18004 3.175,-2.64583 0,-1.46579 -1.41605,-2.645828 -3.175,-2.645831 l -6.87916,4e-6 c -1.75896,-4e-6 -3.175,1.18004 -3.175,2.645829 z" id="path14664"/>
    <path style="color:#000000;fill:#ffcc00;stroke-width:4.81061;stroke-linecap:round;-inkscape-stroke:none;paint-order:fill markers stroke" d="m 146.24649,-88.720856 c -1.03647,1.03647 -0.86959,2.872175 0.37418,4.115949 l 4.8643,4.864299 c 1.24376,1.243767 3.07948,1.410649 4.11595,0.374179 1.03647,-1.03647 0.86958,-2.872181 -0.37418,-4.115949 l -4.8643,-4.864298 c -1.24377,-1.243775 -3.07948,-1.410649 -4.11595,-0.37418 z" id="path14666"/>
  </g>
  <path style="color:#000000;fill:#c6e0f7;stroke-width:3.96875;stroke-linecap:square;-inkscape-stroke:none;paint-order:fill markers stroke" d="M 62.757 123.47 C 48.778 123.47 37.446 134.802 37.446 148.781 C 37.451 149.717 37.509 150.652 37.618 151.582 C 28.072 153.296 20.911 161.006 20.911 170.315 C 20.911 180.891 30.154 189.405 41.637 189.405 L 71.016 189.405 L 72.623 189.405 L 115.592 189.405 C 126.167 189.405 134.681 181.491 134.681 171.661 C 134.681 161.892 126.272 154.02 115.789 153.922 C 114.401 142.97 105.084 134.759 94.044 134.758 C 90.927 134.763 87.847 135.432 85.009 136.722 C 80.585 128.556 72.044 123.47 62.757 123.47 Z" id="rect2741" transform="matrix(1, 0, 0, 1, -3.552713678800501e-15, 0)"/>
  <g id="g895" transform="matrix(1, 0, 0, 1, -43.075745270784864, 15.867693183834742)">
    <path style="color:#000000;fill:#3981bf;stroke-linecap:round;-inkscape-stroke:none;paint-order:fill markers stroke" d="m 98.841797,124.75195 c -6.590345,2e-5 -11.992186,5.34485 -11.992188,11.90625 a 1.984375,1.984375 0 0 0 1.984375,1.98438 1.984375,1.984375 0 0 0 1.984375,-1.98438 c 10e-7,-4.39797 3.559548,-7.93749 8.023438,-7.9375 4.463863,0 8.023433,3.53954 8.023433,7.9375 0,4.39798 -3.55956,7.9375 -8.023433,7.9375 H 46.509766 a 1.984375,1.984375 0 0 0 -1.984375,1.98438 1.984375,1.984375 0 0 0 1.984375,1.98437 h 52.332031 c 6.590343,0 11.992183,-5.34483 11.992183,-11.90625 0,-6.5614 -5.40184,-11.90626 -11.992183,-11.90625 z" id="path12448"/>
    <path style="color:#000000;fill:#3981bf;stroke-linecap:round;-inkscape-stroke:none;paint-order:fill markers stroke" d="m 123.19727,136.39258 c -5.61723,2e-5 -10.30274,4.41431 -10.30274,9.92187 a 1.984375,1.984375 0 0 0 1.98438,1.98438 1.984375,1.984375 0 0 0 1.98437,-1.98438 c 0,-3.25991 2.76352,-5.95311 6.33399,-5.95312 3.57042,-1e-5 6.33398,2.6932 6.33398,5.95312 0,3.25993 -2.76356,5.95314 -6.33398,5.95313 H 57.09375 a 1.984375,1.984375 0 0 0 -1.984375,1.98437 1.984375,1.984375 0 0 0 1.984375,1.98438 h 66.10352 c 5.61722,1e-5 10.30273,-4.41429 10.30273,-9.92188 0,-5.50759 -4.68551,-9.92188 -10.30273,-9.92187 z" id="path15889"/>
    <path style="color:#000000;fill:#3981bf;stroke-linecap:round;-inkscape-stroke:none;paint-order:fill markers stroke" d="m 52.330078,159.94141 a 1.984375,1.984375 0 0 0 -1.984375,1.98437 1.984375,1.984375 0 0 0 1.984375,1.98438 h 55.082032 c 4.18202,-1e-5 7.49219,3.26947 7.49219,7.31054 0,4.04107 -3.31016,7.3125 -7.49219,7.3125 -4.18204,0 -7.492188,-3.27143 -7.492188,-7.3125 a 1.984375,1.984375 0 0 0 -1.984375,-1.98437 1.984375,1.984375 0 0 0 -1.984375,1.98437 c 0,6.22759 5.174888,11.28124 11.460938,11.28125 6.28604,0 11.46094,-5.05365 11.46094,-11.28125 0,-6.2276 -5.1749,-11.27931 -11.46094,-11.27929 z" id="path15891"/>
  </g>
</svg>